<?xml version="1.0" encoding="utf-8" standalone="no"?>
<!DOCTYPE svg PUBLIC "-//W3C//DTD SVG 1.1//EN"
  "http://www.w3.org/Graphics/SVG/1.1/DTD/svg11.dtd">
<svg xmlns:xlink="http://www.w3.org/1999/xlink" width="569.522812pt" height="676.685937pt" viewBox="0 0 569.522812 676.685937" xmlns="http://www.w3.org/2000/svg" version="1.1">
 <metadata>
  <rdf:RDF xmlns:dc="http://purl.org/dc/elements/1.1/" xmlns:cc="http://creativecommons.org/ns#" xmlns:rdf="http://www.w3.org/1999/02/22-rdf-syntax-ns#">
   <cc:Work>
    <dc:type rdf:resource="http://purl.org/dc/dcmitype/StillImage"/>
    <dc:date>2024-07-15T07:44:59.510978</dc:date>
    <dc:format>image/svg+xml</dc:format>
    <dc:creator>
     <cc:Agent>
      <dc:title>Matplotlib v3.9.1, https://matplotlib.org/</dc:title>
     </cc:Agent>
    </dc:creator>
   </cc:Work>
  </rdf:RDF>
 </metadata>
 <defs>
  <style type="text/css">*{stroke-linejoin: round; stroke-linecap: butt}</style>
 </defs>
 <g id="figure_1">
  <g id="patch_1">
   <path d="M 0 676.685937 
L 569.522812 676.685937 
L 569.522812 0 
L 0 0 
z
" style="fill: #ffffff"/>
  </g>
  <g id="axes_1">
   <g id="patch_2">
    <path d="M 319.752813 634.84 
L 562.322812 634.84 
L 562.322812 7.2 
L 319.752813 7.2 
z
" style="fill: #ffffff"/>
   </g>
   <g id="line2d_1">
    <path d="M 319.752813 634.84 
L 319.752813 7.2 
" clip-path="url(#pa24fa57110)" style="fill: none; stroke: #999999; stroke-width: 1.5; stroke-linecap: square"/>
   </g>
   <g id="patch_3">
    <path d="M 319.752813 615.413048 
L 356.696369 615.413048 
L 356.696369 594.491714 
L 319.752813 594.491714 
z
" clip-path="url(#pa24fa57110)" style="fill: #008bfb"/>
   </g>
   <g id="patch_4">
    <path d="M 319.752813 585.525429 
L 357.81079 585.525429 
L 357.81079 564.604095 
L 319.752813 564.604095 
z
" clip-path="url(#pa24fa57110)" style="fill: #008bfb"/>
   </g>
   <g id="patch_5">
    <path d="M 319.752813 555.63781 
L 363.953368 555.63781 
L 363.953368 534.716476 
L 319.752813 534.716476 
z
" clip-path="url(#pa24fa57110)" style="fill: #008bfb"/>
   </g>
   <g id="patch_6">
    <path d="M 319.752813 525.75019 
L 367.415332 525.75019 
L 367.415332 504.828857 
L 319.752813 504.828857 
z
" clip-path="url(#pa24fa57110)" style="fill: #008bfb"/>
   </g>
   <g id="patch_7">
    <path d="M 319.752813 495.862571 
L 369.774958 495.862571 
L 369.774958 474.941238 
L 319.752813 474.941238 
z
" clip-path="url(#pa24fa57110)" style="fill: #008bfb"/>
   </g>
   <g id="patch_8">
    <path d="M 319.752813 465.974952 
L 383.300348 465.974952 
L 383.300348 445.053619 
L 319.752813 445.053619 
z
" clip-path="url(#pa24fa57110)" style="fill: #008bfb"/>
   </g>
   <g id="patch_9">
    <path d="M 319.752813 436.087333 
L 384.119036 436.087333 
L 384.119036 415.166 
L 319.752813 415.166 
z
" clip-path="url(#pa24fa57110)" style="fill: #008bfb"/>
   </g>
   <g id="patch_10">
    <path d="M 319.752813 406.199714 
L 384.215606 406.199714 
L 384.215606 385.278381 
L 319.752813 385.278381 
z
" clip-path="url(#pa24fa57110)" style="fill: #008bfb"/>
   </g>
   <g id="patch_11">
    <path d="M 319.752813 376.312095 
L 384.868969 376.312095 
L 384.868969 355.390762 
L 319.752813 355.390762 
z
" clip-path="url(#pa24fa57110)" style="fill: #008bfb"/>
   </g>
   <g id="patch_12">
    <path d="M 319.752813 346.424476 
L 401.751713 346.424476 
L 401.751713 325.503143 
L 319.752813 325.503143 
z
" clip-path="url(#pa24fa57110)" style="fill: #008bfb"/>
   </g>
   <g id="patch_13">
    <path d="M 319.752813 316.536857 
L 404.951047 316.536857 
L 404.951047 295.615524 
L 319.752813 295.615524 
z
" clip-path="url(#pa24fa57110)" style="fill: #008bfb"/>
   </g>
   <g id="patch_14">
    <path d="M 319.752813 286.649238 
L 405.541712 286.649238 
L 405.541712 265.727905 
L 319.752813 265.727905 
z
" clip-path="url(#pa24fa57110)" style="fill: #008bfb"/>
   </g>
   <g id="patch_15">
    <path d="M 319.752813 256.761619 
L 416.574519 256.761619 
L 416.574519 235.840286 
L 319.752813 235.840286 
z
" clip-path="url(#pa24fa57110)" style="fill: #008bfb"/>
   </g>
   <g id="patch_16">
    <path d="M 319.752813 226.874 
L 425.097122 226.874 
L 425.097122 205.952667 
L 319.752813 205.952667 
z
" clip-path="url(#pa24fa57110)" style="fill: #008bfb"/>
   </g>
   <g id="patch_17">
    <path d="M 319.752813 196.986381 
L 467.877881 196.986381 
L 467.877881 176.065048 
L 319.752813 176.065048 
z
" clip-path="url(#pa24fa57110)" style="fill: #008bfb"/>
   </g>
   <g id="patch_18">
    <path d="M 319.752813 167.098762 
L 468.716305 167.098762 
L 468.716305 146.177429 
L 319.752813 146.177429 
z
" clip-path="url(#pa24fa57110)" style="fill: #008bfb"/>
   </g>
   <g id="patch_19">
    <path d="M 319.752813 137.211143 
L 481.562345 137.211143 
L 481.562345 116.28981 
L 319.752813 116.28981 
z
" clip-path="url(#pa24fa57110)" style="fill: #008bfb"/>
   </g>
   <g id="patch_20">
    <path d="M 319.752813 107.323524 
L 486.972003 107.323524 
L 486.972003 86.40219 
L 319.752813 86.40219 
z
" clip-path="url(#pa24fa57110)" style="fill: #008bfb"/>
   </g>
   <g id="patch_21">
    <path d="M 319.752813 77.435905 
L 510.327773 77.435905 
L 510.327773 56.514571 
L 319.752813 56.514571 
z
" clip-path="url(#pa24fa57110)" style="fill: #008bfb"/>
   </g>
   <g id="patch_22">
    <path d="M 319.752813 47.548286 
L 550.77186 47.548286 
L 550.77186 26.626952 
L 319.752813 26.626952 
z
" clip-path="url(#pa24fa57110)" style="fill: #008bfb"/>
   </g>
   <g id="matplotlib.axis_1">
    <g id="xtick_1">
     <g id="line2d_2">
      <defs>
       <path id="m046918c399" d="M 0 0 
L 0 3.5 
" style="stroke: #333333; stroke-width: 0.8"/>
      </defs>
      <g>
       <use xlink:href="#m046918c399" x="319.752813" y="634.84" style="fill: #333333; stroke: #333333; stroke-width: 0.8"/>
      </g>
     </g>
     <g id="text_1">
      <!-- 0.0 -->
      <g style="fill: #333333" transform="translate(311.006094 650.198281) scale(0.11 -0.11)">
       <defs>
        <path id="DejaVuSans-30" d="M 2034 4250 
Q 1547 4250 1301 3770 
Q 1056 3291 1056 2328 
Q 1056 1369 1301 889 
Q 1547 409 2034 409 
Q 2525 409 2770 889 
Q 3016 1369 3016 2328 
Q 3016 3291 2770 3770 
Q 2525 4250 2034 4250 
z
M 2034 4750 
Q 2819 4750 3233 4129 
Q 3647 3509 3647 2328 
Q 3647 1150 3233 529 
Q 2819 -91 2034 -91 
Q 1250 -91 836 529 
Q 422 1150 422 2328 
Q 422 3509 836 4129 
Q 1250 4750 2034 4750 
z
" transform="scale(0.015625)"/>
        <path id="DejaVuSans-2e" d="M 684 794 
L 1344 794 
L 1344 0 
L 684 0 
L 684 794 
z
" transform="scale(0.015625)"/>
       </defs>
       <use xlink:href="#DejaVuSans-30"/>
       <use xlink:href="#DejaVuSans-2e" x="63.623047"/>
       <use xlink:href="#DejaVuSans-30" x="95.410156"/>
      </g>
     </g>
    </g>
    <g id="xtick_2">
     <g id="line2d_3">
      <g>
       <use xlink:href="#m046918c399" x="381.138845" y="634.84" style="fill: #333333; stroke: #333333; stroke-width: 0.8"/>
      </g>
     </g>
     <g id="text_2">
      <!-- 0.2 -->
      <g style="fill: #333333" transform="translate(372.392126 650.198281) scale(0.11 -0.11)">
       <defs>
        <path id="DejaVuSans-32" d="M 1228 531 
L 3431 531 
L 3431 0 
L 469 0 
L 469 531 
Q 828 903 1448 1529 
Q 2069 2156 2228 2338 
Q 2531 2678 2651 2914 
Q 2772 3150 2772 3378 
Q 2772 3750 2511 3984 
Q 2250 4219 1831 4219 
Q 1534 4219 1204 4116 
Q 875 4013 500 3803 
L 500 4441 
Q 881 4594 1212 4672 
Q 1544 4750 1819 4750 
Q 2544 4750 2975 4387 
Q 3406 4025 3406 3419 
Q 3406 3131 3298 2873 
Q 3191 2616 2906 2266 
Q 2828 2175 2409 1742 
Q 1991 1309 1228 531 
z
" transform="scale(0.015625)"/>
       </defs>
       <use xlink:href="#DejaVuSans-30"/>
       <use xlink:href="#DejaVuSans-2e" x="63.623047"/>
       <use xlink:href="#DejaVuSans-32" x="95.410156"/>
      </g>
     </g>
    </g>
    <g id="xtick_3">
     <g id="line2d_4">
      <g>
       <use xlink:href="#m046918c399" x="442.524878" y="634.84" style="fill: #333333; stroke: #333333; stroke-width: 0.8"/>
      </g>
     </g>
     <g id="text_3">
      <!-- 0.4 -->
      <g style="fill: #333333" transform="translate(433.778159 650.198281) scale(0.11 -0.11)">
       <defs>
        <path id="DejaVuSans-34" d="M 2419 4116 
L 825 1625 
L 2419 1625 
L 2419 4116 
z
M 2253 4666 
L 3047 4666 
L 3047 1625 
L 3713 1625 
L 3713 1100 
L 3047 1100 
L 3047 0 
L 2419 0 
L 2419 1100 
L 313 1100 
L 313 1709 
L 2253 4666 
z
" transform="scale(0.015625)"/>
       </defs>
       <use xlink:href="#DejaVuSans-30"/>
       <use xlink:href="#DejaVuSans-2e" x="63.623047"/>
       <use xlink:href="#DejaVuSans-34" x="95.410156"/>
      </g>
     </g>
    </g>
    <g id="xtick_4">
     <g id="line2d_5">
      <g>
       <use xlink:href="#m046918c399" x="503.91091" y="634.84" style="fill: #333333; stroke: #333333; stroke-width: 0.8"/>
      </g>
     </g>
     <g id="text_4">
      <!-- 0.6 -->
      <g style="fill: #333333" transform="translate(495.164191 650.198281) scale(0.11 -0.11)">
       <defs>
        <path id="DejaVuSans-36" d="M 2113 2584 
Q 1688 2584 1439 2293 
Q 1191 2003 1191 1497 
Q 1191 994 1439 701 
Q 1688 409 2113 409 
Q 2538 409 2786 701 
Q 3034 994 3034 1497 
Q 3034 2003 2786 2293 
Q 2538 2584 2113 2584 
z
M 3366 4563 
L 3366 3988 
Q 3128 4100 2886 4159 
Q 2644 4219 2406 4219 
Q 1781 4219 1451 3797 
Q 1122 3375 1075 2522 
Q 1259 2794 1537 2939 
Q 1816 3084 2150 3084 
Q 2853 3084 3261 2657 
Q 3669 2231 3669 1497 
Q 3669 778 3244 343 
Q 2819 -91 2113 -91 
Q 1303 -91 875 529 
Q 447 1150 447 2328 
Q 447 3434 972 4092 
Q 1497 4750 2381 4750 
Q 2619 4750 2861 4703 
Q 3103 4656 3366 4563 
z
" transform="scale(0.015625)"/>
       </defs>
       <use xlink:href="#DejaVuSans-30"/>
       <use xlink:href="#DejaVuSans-2e" x="63.623047"/>
       <use xlink:href="#DejaVuSans-36" x="95.410156"/>
      </g>
     </g>
    </g>
    <g id="text_5">
     <!-- mean(|SHAP value|) (average impact on model output magnitude) -->
     <g transform="translate(224.568516 666.420781) scale(0.13 -0.13)">
      <defs>
       <path id="DejaVuSans-6d" d="M 3328 2828 
Q 3544 3216 3844 3400 
Q 4144 3584 4550 3584 
Q 5097 3584 5394 3201 
Q 5691 2819 5691 2113 
L 5691 0 
L 5113 0 
L 5113 2094 
Q 5113 2597 4934 2840 
Q 4756 3084 4391 3084 
Q 3944 3084 3684 2787 
Q 3425 2491 3425 1978 
L 3425 0 
L 2847 0 
L 2847 2094 
Q 2847 2600 2669 2842 
Q 2491 3084 2119 3084 
Q 1678 3084 1418 2786 
Q 1159 2488 1159 1978 
L 1159 0 
L 581 0 
L 581 3500 
L 1159 3500 
L 1159 2956 
Q 1356 3278 1631 3431 
Q 1906 3584 2284 3584 
Q 2666 3584 2933 3390 
Q 3200 3197 3328 2828 
z
" transform="scale(0.015625)"/>
       <path id="DejaVuSans-65" d="M 3597 1894 
L 3597 1613 
L 953 1613 
Q 991 1019 1311 708 
Q 1631 397 2203 397 
Q 2534 397 2845 478 
Q 3156 559 3463 722 
L 3463 178 
Q 3153 47 2828 -22 
Q 2503 -91 2169 -91 
Q 1331 -91 842 396 
Q 353 884 353 1716 
Q 353 2575 817 3079 
Q 1281 3584 2069 3584 
Q 2775 3584 3186 3129 
Q 3597 2675 3597 1894 
z
M 3022 2063 
Q 3016 2534 2758 2815 
Q 2500 3097 2075 3097 
Q 1594 3097 1305 2825 
Q 1016 2553 972 2059 
L 3022 2063 
z
" transform="scale(0.015625)"/>
       <path id="DejaVuSans-61" d="M 2194 1759 
Q 1497 1759 1228 1600 
Q 959 1441 959 1056 
Q 959 750 1161 570 
Q 1363 391 1709 391 
Q 2188 391 2477 730 
Q 2766 1069 2766 1631 
L 2766 1759 
L 2194 1759 
z
M 3341 1997 
L 3341 0 
L 2766 0 
L 2766 531 
Q 2569 213 2275 61 
Q 1981 -91 1556 -91 
Q 1019 -91 701 211 
Q 384 513 384 1019 
Q 384 1609 779 1909 
Q 1175 2209 1959 2209 
L 2766 2209 
L 2766 2266 
Q 2766 2663 2505 2880 
Q 2244 3097 1772 3097 
Q 1472 3097 1187 3025 
Q 903 2953 641 2809 
L 641 3341 
Q 956 3463 1253 3523 
Q 1550 3584 1831 3584 
Q 2591 3584 2966 3190 
Q 3341 2797 3341 1997 
z
" transform="scale(0.015625)"/>
       <path id="DejaVuSans-6e" d="M 3513 2113 
L 3513 0 
L 2938 0 
L 2938 2094 
Q 2938 2591 2744 2837 
Q 2550 3084 2163 3084 
Q 1697 3084 1428 2787 
Q 1159 2491 1159 1978 
L 1159 0 
L 581 0 
L 581 3500 
L 1159 3500 
L 1159 2956 
Q 1366 3272 1645 3428 
Q 1925 3584 2291 3584 
Q 2894 3584 3203 3211 
Q 3513 2838 3513 2113 
z
" transform="scale(0.015625)"/>
       <path id="DejaVuSans-28" d="M 1984 4856 
Q 1566 4138 1362 3434 
Q 1159 2731 1159 2009 
Q 1159 1288 1364 580 
Q 1569 -128 1984 -844 
L 1484 -844 
Q 1016 -109 783 600 
Q 550 1309 550 2009 
Q 550 2706 781 3412 
Q 1013 4119 1484 4856 
L 1984 4856 
z
" transform="scale(0.015625)"/>
       <path id="DejaVuSans-7c" d="M 1344 4891 
L 1344 -1509 
L 813 -1509 
L 813 4891 
L 1344 4891 
z
" transform="scale(0.015625)"/>
       <path id="DejaVuSans-53" d="M 3425 4513 
L 3425 3897 
Q 3066 4069 2747 4153 
Q 2428 4238 2131 4238 
Q 1616 4238 1336 4038 
Q 1056 3838 1056 3469 
Q 1056 3159 1242 3001 
Q 1428 2844 1947 2747 
L 2328 2669 
Q 3034 2534 3370 2195 
Q 3706 1856 3706 1288 
Q 3706 609 3251 259 
Q 2797 -91 1919 -91 
Q 1588 -91 1214 -16 
Q 841 59 441 206 
L 441 856 
Q 825 641 1194 531 
Q 1563 422 1919 422 
Q 2459 422 2753 634 
Q 3047 847 3047 1241 
Q 3047 1584 2836 1778 
Q 2625 1972 2144 2069 
L 1759 2144 
Q 1053 2284 737 2584 
Q 422 2884 422 3419 
Q 422 4038 858 4394 
Q 1294 4750 2059 4750 
Q 2388 4750 2728 4690 
Q 3069 4631 3425 4513 
z
" transform="scale(0.015625)"/>
       <path id="DejaVuSans-48" d="M 628 4666 
L 1259 4666 
L 1259 2753 
L 3553 2753 
L 3553 4666 
L 4184 4666 
L 4184 0 
L 3553 0 
L 3553 2222 
L 1259 2222 
L 1259 0 
L 628 0 
L 628 4666 
z
" transform="scale(0.015625)"/>
       <path id="DejaVuSans-41" d="M 2188 4044 
L 1331 1722 
L 3047 1722 
L 2188 4044 
z
M 1831 4666 
L 2547 4666 
L 4325 0 
L 3669 0 
L 3244 1197 
L 1141 1197 
L 716 0 
L 50 0 
L 1831 4666 
z
" transform="scale(0.015625)"/>
       <path id="DejaVuSans-50" d="M 1259 4147 
L 1259 2394 
L 2053 2394 
Q 2494 2394 2734 2622 
Q 2975 2850 2975 3272 
Q 2975 3691 2734 3919 
Q 2494 4147 2053 4147 
L 1259 4147 
z
M 628 4666 
L 2053 4666 
Q 2838 4666 3239 4311 
Q 3641 3956 3641 3272 
Q 3641 2581 3239 2228 
Q 2838 1875 2053 1875 
L 1259 1875 
L 1259 0 
L 628 0 
L 628 4666 
z
" transform="scale(0.015625)"/>
       <path id="DejaVuSans-20" transform="scale(0.015625)"/>
       <path id="DejaVuSans-76" d="M 191 3500 
L 800 3500 
L 1894 563 
L 2988 3500 
L 3597 3500 
L 2284 0 
L 1503 0 
L 191 3500 
z
" transform="scale(0.015625)"/>
       <path id="DejaVuSans-6c" d="M 603 4863 
L 1178 4863 
L 1178 0 
L 603 0 
L 603 4863 
z
" transform="scale(0.015625)"/>
       <path id="DejaVuSans-75" d="M 544 1381 
L 544 3500 
L 1119 3500 
L 1119 1403 
Q 1119 906 1312 657 
Q 1506 409 1894 409 
Q 2359 409 2629 706 
Q 2900 1003 2900 1516 
L 2900 3500 
L 3475 3500 
L 3475 0 
L 2900 0 
L 2900 538 
Q 2691 219 2414 64 
Q 2138 -91 1772 -91 
Q 1169 -91 856 284 
Q 544 659 544 1381 
z
M 1991 3584 
L 1991 3584 
z
" transform="scale(0.015625)"/>
       <path id="DejaVuSans-29" d="M 513 4856 
L 1013 4856 
Q 1481 4119 1714 3412 
Q 1947 2706 1947 2009 
Q 1947 1309 1714 600 
Q 1481 -109 1013 -844 
L 513 -844 
Q 928 -128 1133 580 
Q 1338 1288 1338 2009 
Q 1338 2731 1133 3434 
Q 928 4138 513 4856 
z
" transform="scale(0.015625)"/>
       <path id="DejaVuSans-72" d="M 2631 2963 
Q 2534 3019 2420 3045 
Q 2306 3072 2169 3072 
Q 1681 3072 1420 2755 
Q 1159 2438 1159 1844 
L 1159 0 
L 581 0 
L 581 3500 
L 1159 3500 
L 1159 2956 
Q 1341 3275 1631 3429 
Q 1922 3584 2338 3584 
Q 2397 3584 2469 3576 
Q 2541 3569 2628 3553 
L 2631 2963 
z
" transform="scale(0.015625)"/>
       <path id="DejaVuSans-67" d="M 2906 1791 
Q 2906 2416 2648 2759 
Q 2391 3103 1925 3103 
Q 1463 3103 1205 2759 
Q 947 2416 947 1791 
Q 947 1169 1205 825 
Q 1463 481 1925 481 
Q 2391 481 2648 825 
Q 2906 1169 2906 1791 
z
M 3481 434 
Q 3481 -459 3084 -895 
Q 2688 -1331 1869 -1331 
Q 1566 -1331 1297 -1286 
Q 1028 -1241 775 -1147 
L 775 -588 
Q 1028 -725 1275 -790 
Q 1522 -856 1778 -856 
Q 2344 -856 2625 -561 
Q 2906 -266 2906 331 
L 2906 616 
Q 2728 306 2450 153 
Q 2172 0 1784 0 
Q 1141 0 747 490 
Q 353 981 353 1791 
Q 353 2603 747 3093 
Q 1141 3584 1784 3584 
Q 2172 3584 2450 3431 
Q 2728 3278 2906 2969 
L 2906 3500 
L 3481 3500 
L 3481 434 
z
" transform="scale(0.015625)"/>
       <path id="DejaVuSans-69" d="M 603 3500 
L 1178 3500 
L 1178 0 
L 603 0 
L 603 3500 
z
M 603 4863 
L 1178 4863 
L 1178 4134 
L 603 4134 
L 603 4863 
z
" transform="scale(0.015625)"/>
       <path id="DejaVuSans-70" d="M 1159 525 
L 1159 -1331 
L 581 -1331 
L 581 3500 
L 1159 3500 
L 1159 2969 
Q 1341 3281 1617 3432 
Q 1894 3584 2278 3584 
Q 2916 3584 3314 3078 
Q 3713 2572 3713 1747 
Q 3713 922 3314 415 
Q 2916 -91 2278 -91 
Q 1894 -91 1617 61 
Q 1341 213 1159 525 
z
M 3116 1747 
Q 3116 2381 2855 2742 
Q 2594 3103 2138 3103 
Q 1681 3103 1420 2742 
Q 1159 2381 1159 1747 
Q 1159 1113 1420 752 
Q 1681 391 2138 391 
Q 2594 391 2855 752 
Q 3116 1113 3116 1747 
z
" transform="scale(0.015625)"/>
       <path id="DejaVuSans-63" d="M 3122 3366 
L 3122 2828 
Q 2878 2963 2633 3030 
Q 2388 3097 2138 3097 
Q 1578 3097 1268 2742 
Q 959 2388 959 1747 
Q 959 1106 1268 751 
Q 1578 397 2138 397 
Q 2388 397 2633 464 
Q 2878 531 3122 666 
L 3122 134 
Q 2881 22 2623 -34 
Q 2366 -91 2075 -91 
Q 1284 -91 818 406 
Q 353 903 353 1747 
Q 353 2603 823 3093 
Q 1294 3584 2113 3584 
Q 2378 3584 2631 3529 
Q 2884 3475 3122 3366 
z
" transform="scale(0.015625)"/>
       <path id="DejaVuSans-74" d="M 1172 4494 
L 1172 3500 
L 2356 3500 
L 2356 3053 
L 1172 3053 
L 1172 1153 
Q 1172 725 1289 603 
Q 1406 481 1766 481 
L 2356 481 
L 2356 0 
L 1766 0 
Q 1100 0 847 248 
Q 594 497 594 1153 
L 594 3053 
L 172 3053 
L 172 3500 
L 594 3500 
L 594 4494 
L 1172 4494 
z
" transform="scale(0.015625)"/>
       <path id="DejaVuSans-6f" d="M 1959 3097 
Q 1497 3097 1228 2736 
Q 959 2375 959 1747 
Q 959 1119 1226 758 
Q 1494 397 1959 397 
Q 2419 397 2687 759 
Q 2956 1122 2956 1747 
Q 2956 2369 2687 2733 
Q 2419 3097 1959 3097 
z
M 1959 3584 
Q 2709 3584 3137 3096 
Q 3566 2609 3566 1747 
Q 3566 888 3137 398 
Q 2709 -91 1959 -91 
Q 1206 -91 779 398 
Q 353 888 353 1747 
Q 353 2609 779 3096 
Q 1206 3584 1959 3584 
z
" transform="scale(0.015625)"/>
       <path id="DejaVuSans-64" d="M 2906 2969 
L 2906 4863 
L 3481 4863 
L 3481 0 
L 2906 0 
L 2906 525 
Q 2725 213 2448 61 
Q 2172 -91 1784 -91 
Q 1150 -91 751 415 
Q 353 922 353 1747 
Q 353 2572 751 3078 
Q 1150 3584 1784 3584 
Q 2172 3584 2448 3432 
Q 2725 3281 2906 2969 
z
M 947 1747 
Q 947 1113 1208 752 
Q 1469 391 1925 391 
Q 2381 391 2643 752 
Q 2906 1113 2906 1747 
Q 2906 2381 2643 2742 
Q 2381 3103 1925 3103 
Q 1469 3103 1208 2742 
Q 947 2381 947 1747 
z
" transform="scale(0.015625)"/>
      </defs>
      <use xlink:href="#DejaVuSans-6d"/>
      <use xlink:href="#DejaVuSans-65" x="97.412109"/>
      <use xlink:href="#DejaVuSans-61" x="158.935547"/>
      <use xlink:href="#DejaVuSans-6e" x="220.214844"/>
      <use xlink:href="#DejaVuSans-28" x="283.59375"/>
      <use xlink:href="#DejaVuSans-7c" x="322.607422"/>
      <use xlink:href="#DejaVuSans-53" x="356.298828"/>
      <use xlink:href="#DejaVuSans-48" x="419.775391"/>
      <use xlink:href="#DejaVuSans-41" x="494.970703"/>
      <use xlink:href="#DejaVuSans-50" x="563.378906"/>
      <use xlink:href="#DejaVuSans-20" x="623.681641"/>
      <use xlink:href="#DejaVuSans-76" x="655.46875"/>
      <use xlink:href="#DejaVuSans-61" x="714.648438"/>
      <use xlink:href="#DejaVuSans-6c" x="775.927734"/>
      <use xlink:href="#DejaVuSans-75" x="803.710938"/>
      <use xlink:href="#DejaVuSans-65" x="867.089844"/>
      <use xlink:href="#DejaVuSans-7c" x="928.613281"/>
      <use xlink:href="#DejaVuSans-29" x="962.304688"/>
      <use xlink:href="#DejaVuSans-20" x="1001.318359"/>
      <use xlink:href="#DejaVuSans-28" x="1033.105469"/>
      <use xlink:href="#DejaVuSans-61" x="1072.119141"/>
      <use xlink:href="#DejaVuSans-76" x="1133.398438"/>
      <use xlink:href="#DejaVuSans-65" x="1192.578125"/>
      <use xlink:href="#DejaVuSans-72" x="1254.101562"/>
      <use xlink:href="#DejaVuSans-61" x="1295.214844"/>
      <use xlink:href="#DejaVuSans-67" x="1356.494141"/>
      <use xlink:href="#DejaVuSans-65" x="1419.970703"/>
      <use xlink:href="#DejaVuSans-20" x="1481.494141"/>
      <use xlink:href="#DejaVuSans-69" x="1513.28125"/>
      <use xlink:href="#DejaVuSans-6d" x="1541.064453"/>
      <use xlink:href="#DejaVuSans-70" x="1638.476562"/>
      <use xlink:href="#DejaVuSans-61" x="1701.953125"/>
      <use xlink:href="#DejaVuSans-63" x="1763.232422"/>
      <use xlink:href="#DejaVuSans-74" x="1818.212891"/>
      <use xlink:href="#DejaVuSans-20" x="1857.421875"/>
      <use xlink:href="#DejaVuSans-6f" x="1889.208984"/>
      <use xlink:href="#DejaVuSans-6e" x="1950.390625"/>
      <use xlink:href="#DejaVuSans-20" x="2013.769531"/>
      <use xlink:href="#DejaVuSans-6d" x="2045.556641"/>
      <use xlink:href="#DejaVuSans-6f" x="2142.96875"/>
      <use xlink:href="#DejaVuSans-64" x="2204.150391"/>
      <use xlink:href="#DejaVuSans-65" x="2267.626953"/>
      <use xlink:href="#DejaVuSans-6c" x="2329.150391"/>
      <use xlink:href="#DejaVuSans-20" x="2356.933594"/>
      <use xlink:href="#DejaVuSans-6f" x="2388.720703"/>
      <use xlink:href="#DejaVuSans-75" x="2449.902344"/>
      <use xlink:href="#DejaVuSans-74" x="2513.28125"/>
      <use xlink:href="#DejaVuSans-70" x="2552.490234"/>
      <use xlink:href="#DejaVuSans-75" x="2615.966797"/>
      <use xlink:href="#DejaVuSans-74" x="2679.345703"/>
      <use xlink:href="#DejaVuSans-20" x="2718.554688"/>
      <use xlink:href="#DejaVuSans-6d" x="2750.341797"/>
      <use xlink:href="#DejaVuSans-61" x="2847.753906"/>
      <use xlink:href="#DejaVuSans-67" x="2909.033203"/>
      <use xlink:href="#DejaVuSans-6e" x="2972.509766"/>
      <use xlink:href="#DejaVuSans-69" x="3035.888672"/>
      <use xlink:href="#DejaVuSans-74" x="3063.671875"/>
      <use xlink:href="#DejaVuSans-75" x="3102.880859"/>
      <use xlink:href="#DejaVuSans-64" x="3166.259766"/>
      <use xlink:href="#DejaVuSans-65" x="3229.736328"/>
      <use xlink:href="#DejaVuSans-29" x="3291.259766"/>
     </g>
    </g>
   </g>
   <g id="matplotlib.axis_2">
    <g id="ytick_1">
     <g id="text_6">
      <!-- non alphabetic characters frequency -->
      <g style="fill: #333333" transform="translate(73.558906 609.891365) scale(0.13 -0.13)">
       <defs>
        <path id="DejaVuSans-68" d="M 3513 2113 
L 3513 0 
L 2938 0 
L 2938 2094 
Q 2938 2591 2744 2837 
Q 2550 3084 2163 3084 
Q 1697 3084 1428 2787 
Q 1159 2491 1159 1978 
L 1159 0 
L 581 0 
L 581 4863 
L 1159 4863 
L 1159 2956 
Q 1366 3272 1645 3428 
Q 1925 3584 2291 3584 
Q 2894 3584 3203 3211 
Q 3513 2838 3513 2113 
z
" transform="scale(0.015625)"/>
        <path id="DejaVuSans-62" d="M 3116 1747 
Q 3116 2381 2855 2742 
Q 2594 3103 2138 3103 
Q 1681 3103 1420 2742 
Q 1159 2381 1159 1747 
Q 1159 1113 1420 752 
Q 1681 391 2138 391 
Q 2594 391 2855 752 
Q 3116 1113 3116 1747 
z
M 1159 2969 
Q 1341 3281 1617 3432 
Q 1894 3584 2278 3584 
Q 2916 3584 3314 3078 
Q 3713 2572 3713 1747 
Q 3713 922 3314 415 
Q 2916 -91 2278 -91 
Q 1894 -91 1617 61 
Q 1341 213 1159 525 
L 1159 0 
L 581 0 
L 581 4863 
L 1159 4863 
L 1159 2969 
z
" transform="scale(0.015625)"/>
        <path id="DejaVuSans-73" d="M 2834 3397 
L 2834 2853 
Q 2591 2978 2328 3040 
Q 2066 3103 1784 3103 
Q 1356 3103 1142 2972 
Q 928 2841 928 2578 
Q 928 2378 1081 2264 
Q 1234 2150 1697 2047 
L 1894 2003 
Q 2506 1872 2764 1633 
Q 3022 1394 3022 966 
Q 3022 478 2636 193 
Q 2250 -91 1575 -91 
Q 1294 -91 989 -36 
Q 684 19 347 128 
L 347 722 
Q 666 556 975 473 
Q 1284 391 1588 391 
Q 1994 391 2212 530 
Q 2431 669 2431 922 
Q 2431 1156 2273 1281 
Q 2116 1406 1581 1522 
L 1381 1569 
Q 847 1681 609 1914 
Q 372 2147 372 2553 
Q 372 3047 722 3315 
Q 1072 3584 1716 3584 
Q 2034 3584 2315 3537 
Q 2597 3491 2834 3397 
z
" transform="scale(0.015625)"/>
        <path id="DejaVuSans-66" d="M 2375 4863 
L 2375 4384 
L 1825 4384 
Q 1516 4384 1395 4259 
Q 1275 4134 1275 3809 
L 1275 3500 
L 2222 3500 
L 2222 3053 
L 1275 3053 
L 1275 0 
L 697 0 
L 697 3053 
L 147 3053 
L 147 3500 
L 697 3500 
L 697 3744 
Q 697 4328 969 4595 
Q 1241 4863 1831 4863 
L 2375 4863 
z
" transform="scale(0.015625)"/>
        <path id="DejaVuSans-71" d="M 947 1747 
Q 947 1113 1208 752 
Q 1469 391 1925 391 
Q 2381 391 2643 752 
Q 2906 1113 2906 1747 
Q 2906 2381 2643 2742 
Q 2381 3103 1925 3103 
Q 1469 3103 1208 2742 
Q 947 2381 947 1747 
z
M 2906 525 
Q 2725 213 2448 61 
Q 2172 -91 1784 -91 
Q 1150 -91 751 415 
Q 353 922 353 1747 
Q 353 2572 751 3078 
Q 1150 3584 1784 3584 
Q 2172 3584 2448 3432 
Q 2725 3281 2906 2969 
L 2906 3500 
L 3481 3500 
L 3481 -1331 
L 2906 -1331 
L 2906 525 
z
" transform="scale(0.015625)"/>
        <path id="DejaVuSans-79" d="M 2059 -325 
Q 1816 -950 1584 -1140 
Q 1353 -1331 966 -1331 
L 506 -1331 
L 506 -850 
L 844 -850 
Q 1081 -850 1212 -737 
Q 1344 -625 1503 -206 
L 1606 56 
L 191 3500 
L 800 3500 
L 1894 763 
L 2988 3500 
L 3597 3500 
L 2059 -325 
z
" transform="scale(0.015625)"/>
       </defs>
       <use xlink:href="#DejaVuSans-6e"/>
       <use xlink:href="#DejaVuSans-6f" x="63.378906"/>
       <use xlink:href="#DejaVuSans-6e" x="124.560547"/>
       <use xlink:href="#DejaVuSans-20" x="187.939453"/>
       <use xlink:href="#DejaVuSans-61" x="219.726562"/>
       <use xlink:href="#DejaVuSans-6c" x="281.005859"/>
       <use xlink:href="#DejaVuSans-70" x="308.789062"/>
       <use xlink:href="#DejaVuSans-68" x="372.265625"/>
       <use xlink:href="#DejaVuSans-61" x="435.644531"/>
       <use xlink:href="#DejaVuSans-62" x="496.923828"/>
       <use xlink:href="#DejaVuSans-65" x="560.400391"/>
       <use xlink:href="#DejaVuSans-74" x="621.923828"/>
       <use xlink:href="#DejaVuSans-69" x="661.132812"/>
       <use xlink:href="#DejaVuSans-63" x="688.916016"/>
       <use xlink:href="#DejaVuSans-20" x="743.896484"/>
       <use xlink:href="#DejaVuSans-63" x="775.683594"/>
       <use xlink:href="#DejaVuSans-68" x="830.664062"/>
       <use xlink:href="#DejaVuSans-61" x="894.042969"/>
       <use xlink:href="#DejaVuSans-72" x="955.322266"/>
       <use xlink:href="#DejaVuSans-61" x="996.435547"/>
       <use xlink:href="#DejaVuSans-63" x="1057.714844"/>
       <use xlink:href="#DejaVuSans-74" x="1112.695312"/>
       <use xlink:href="#DejaVuSans-65" x="1151.904297"/>
       <use xlink:href="#DejaVuSans-72" x="1213.427734"/>
       <use xlink:href="#DejaVuSans-73" x="1254.541016"/>
       <use xlink:href="#DejaVuSans-20" x="1306.640625"/>
       <use xlink:href="#DejaVuSans-66" x="1338.427734"/>
       <use xlink:href="#DejaVuSans-72" x="1373.632812"/>
       <use xlink:href="#DejaVuSans-65" x="1412.496094"/>
       <use xlink:href="#DejaVuSans-71" x="1474.019531"/>
       <use xlink:href="#DejaVuSans-75" x="1537.496094"/>
       <use xlink:href="#DejaVuSans-65" x="1600.875"/>
       <use xlink:href="#DejaVuSans-6e" x="1662.398438"/>
       <use xlink:href="#DejaVuSans-63" x="1725.777344"/>
       <use xlink:href="#DejaVuSans-79" x="1780.757812"/>
      </g>
     </g>
    </g>
    <g id="ytick_2">
     <g id="text_7">
      <!-- v8 standard deviation of sentence length -->
      <g style="fill: #333333" transform="translate(44.581094 580.003746) scale(0.13 -0.13)">
       <defs>
        <path id="DejaVuSans-38" d="M 2034 2216 
Q 1584 2216 1326 1975 
Q 1069 1734 1069 1313 
Q 1069 891 1326 650 
Q 1584 409 2034 409 
Q 2484 409 2743 651 
Q 3003 894 3003 1313 
Q 3003 1734 2745 1975 
Q 2488 2216 2034 2216 
z
M 1403 2484 
Q 997 2584 770 2862 
Q 544 3141 544 3541 
Q 544 4100 942 4425 
Q 1341 4750 2034 4750 
Q 2731 4750 3128 4425 
Q 3525 4100 3525 3541 
Q 3525 3141 3298 2862 
Q 3072 2584 2669 2484 
Q 3125 2378 3379 2068 
Q 3634 1759 3634 1313 
Q 3634 634 3220 271 
Q 2806 -91 2034 -91 
Q 1263 -91 848 271 
Q 434 634 434 1313 
Q 434 1759 690 2068 
Q 947 2378 1403 2484 
z
M 1172 3481 
Q 1172 3119 1398 2916 
Q 1625 2713 2034 2713 
Q 2441 2713 2670 2916 
Q 2900 3119 2900 3481 
Q 2900 3844 2670 4047 
Q 2441 4250 2034 4250 
Q 1625 4250 1398 4047 
Q 1172 3844 1172 3481 
z
" transform="scale(0.015625)"/>
       </defs>
       <use xlink:href="#DejaVuSans-76"/>
       <use xlink:href="#DejaVuSans-38" x="59.179688"/>
       <use xlink:href="#DejaVuSans-20" x="122.802734"/>
       <use xlink:href="#DejaVuSans-73" x="154.589844"/>
       <use xlink:href="#DejaVuSans-74" x="206.689453"/>
       <use xlink:href="#DejaVuSans-61" x="245.898438"/>
       <use xlink:href="#DejaVuSans-6e" x="307.177734"/>
       <use xlink:href="#DejaVuSans-64" x="370.556641"/>
       <use xlink:href="#DejaVuSans-61" x="434.033203"/>
       <use xlink:href="#DejaVuSans-72" x="495.3125"/>
       <use xlink:href="#DejaVuSans-64" x="534.675781"/>
       <use xlink:href="#DejaVuSans-20" x="598.152344"/>
       <use xlink:href="#DejaVuSans-64" x="629.939453"/>
       <use xlink:href="#DejaVuSans-65" x="693.416016"/>
       <use xlink:href="#DejaVuSans-76" x="754.939453"/>
       <use xlink:href="#DejaVuSans-69" x="814.119141"/>
       <use xlink:href="#DejaVuSans-61" x="841.902344"/>
       <use xlink:href="#DejaVuSans-74" x="903.181641"/>
       <use xlink:href="#DejaVuSans-69" x="942.390625"/>
       <use xlink:href="#DejaVuSans-6f" x="970.173828"/>
       <use xlink:href="#DejaVuSans-6e" x="1031.355469"/>
       <use xlink:href="#DejaVuSans-20" x="1094.734375"/>
       <use xlink:href="#DejaVuSans-6f" x="1126.521484"/>
       <use xlink:href="#DejaVuSans-66" x="1187.703125"/>
       <use xlink:href="#DejaVuSans-20" x="1222.908203"/>
       <use xlink:href="#DejaVuSans-73" x="1254.695312"/>
       <use xlink:href="#DejaVuSans-65" x="1306.794922"/>
       <use xlink:href="#DejaVuSans-6e" x="1368.318359"/>
       <use xlink:href="#DejaVuSans-74" x="1431.697266"/>
       <use xlink:href="#DejaVuSans-65" x="1470.90625"/>
       <use xlink:href="#DejaVuSans-6e" x="1532.429688"/>
       <use xlink:href="#DejaVuSans-63" x="1595.808594"/>
       <use xlink:href="#DejaVuSans-65" x="1650.789062"/>
       <use xlink:href="#DejaVuSans-20" x="1712.3125"/>
       <use xlink:href="#DejaVuSans-6c" x="1744.099609"/>
       <use xlink:href="#DejaVuSans-65" x="1771.882812"/>
       <use xlink:href="#DejaVuSans-6e" x="1833.40625"/>
       <use xlink:href="#DejaVuSans-67" x="1896.785156"/>
       <use xlink:href="#DejaVuSans-74" x="1960.261719"/>
       <use xlink:href="#DejaVuSans-68" x="1999.470703"/>
      </g>
     </g>
    </g>
    <g id="ytick_3">
     <g id="text_8">
      <!-- NN -->
      <g style="fill: #333333" transform="translate(293.301562 550.116127) scale(0.13 -0.13)">
       <defs>
        <path id="DejaVuSans-4e" d="M 628 4666 
L 1478 4666 
L 3547 763 
L 3547 4666 
L 4159 4666 
L 4159 0 
L 3309 0 
L 1241 3903 
L 1241 0 
L 628 0 
L 628 4666 
z
" transform="scale(0.015625)"/>
       </defs>
       <use xlink:href="#DejaVuSans-4e"/>
       <use xlink:href="#DejaVuSans-4e" x="74.804688"/>
      </g>
     </g>
    </g>
    <g id="ytick_4">
     <g id="text_9">
      <!-- IN -->
      <g style="fill: #333333" transform="translate(299.192187 520.228508) scale(0.13 -0.13)">
       <defs>
        <path id="DejaVuSans-49" d="M 628 4666 
L 1259 4666 
L 1259 0 
L 628 0 
L 628 4666 
z
" transform="scale(0.015625)"/>
       </defs>
       <use xlink:href="#DejaVuSans-49"/>
       <use xlink:href="#DejaVuSans-4e" x="29.492188"/>
      </g>
     </g>
    </g>
    <g id="ytick_5">
     <g id="text_10">
      <!-- CC -->
      <g style="fill: #333333" transform="translate(294.5975 490.340889) scale(0.13 -0.13)">
       <defs>
        <path id="DejaVuSans-43" d="M 4122 4306 
L 4122 3641 
Q 3803 3938 3442 4084 
Q 3081 4231 2675 4231 
Q 1875 4231 1450 3742 
Q 1025 3253 1025 2328 
Q 1025 1406 1450 917 
Q 1875 428 2675 428 
Q 3081 428 3442 575 
Q 3803 722 4122 1019 
L 4122 359 
Q 3791 134 3420 21 
Q 3050 -91 2638 -91 
Q 1578 -91 968 557 
Q 359 1206 359 2328 
Q 359 3453 968 4101 
Q 1578 4750 2638 4750 
Q 3056 4750 3426 4639 
Q 3797 4528 4122 4306 
z
" transform="scale(0.015625)"/>
       </defs>
       <use xlink:href="#DejaVuSans-43"/>
       <use xlink:href="#DejaVuSans-43" x="69.824219"/>
      </g>
     </g>
    </g>
    <g id="ytick_6">
     <g id="text_11">
      <!-- v4 dash present -->
      <g style="fill: #333333" transform="translate(207.883438 460.45327) scale(0.13 -0.13)">
       <use xlink:href="#DejaVuSans-76"/>
       <use xlink:href="#DejaVuSans-34" x="59.179688"/>
       <use xlink:href="#DejaVuSans-20" x="122.802734"/>
       <use xlink:href="#DejaVuSans-64" x="154.589844"/>
       <use xlink:href="#DejaVuSans-61" x="218.066406"/>
       <use xlink:href="#DejaVuSans-73" x="279.345703"/>
       <use xlink:href="#DejaVuSans-68" x="331.445312"/>
       <use xlink:href="#DejaVuSans-20" x="394.824219"/>
       <use xlink:href="#DejaVuSans-70" x="426.611328"/>
       <use xlink:href="#DejaVuSans-72" x="490.087891"/>
       <use xlink:href="#DejaVuSans-65" x="528.951172"/>
       <use xlink:href="#DejaVuSans-73" x="590.474609"/>
       <use xlink:href="#DejaVuSans-65" x="642.574219"/>
       <use xlink:href="#DejaVuSans-6e" x="704.097656"/>
       <use xlink:href="#DejaVuSans-74" x="767.476562"/>
      </g>
     </g>
    </g>
    <g id="ytick_7">
     <g id="text_12">
      <!-- PRP -->
      <g style="fill: #333333" transform="translate(288.042656 430.565651) scale(0.13 -0.13)">
       <defs>
        <path id="DejaVuSans-52" d="M 2841 2188 
Q 3044 2119 3236 1894 
Q 3428 1669 3622 1275 
L 4263 0 
L 3584 0 
L 2988 1197 
Q 2756 1666 2539 1819 
Q 2322 1972 1947 1972 
L 1259 1972 
L 1259 0 
L 628 0 
L 628 4666 
L 2053 4666 
Q 2853 4666 3247 4331 
Q 3641 3997 3641 3322 
Q 3641 2881 3436 2590 
Q 3231 2300 2841 2188 
z
M 1259 4147 
L 1259 2491 
L 2053 2491 
Q 2509 2491 2742 2702 
Q 2975 2913 2975 3322 
Q 2975 3731 2742 3939 
Q 2509 4147 2053 4147 
L 1259 4147 
z
" transform="scale(0.015625)"/>
       </defs>
       <use xlink:href="#DejaVuSans-50"/>
       <use xlink:href="#DejaVuSans-52" x="60.302734"/>
       <use xlink:href="#DejaVuSans-50" x="129.785156"/>
      </g>
     </g>
    </g>
    <g id="ytick_8">
     <g id="text_13">
      <!-- JJ -->
      <g style="fill: #333333" transform="translate(305.082812 400.678032) scale(0.13 -0.13)">
       <defs>
        <path id="DejaVuSans-4a" d="M 628 4666 
L 1259 4666 
L 1259 325 
Q 1259 -519 939 -900 
Q 619 -1281 -91 -1281 
L -331 -1281 
L -331 -750 
L -134 -750 
Q 284 -750 456 -515 
Q 628 -281 628 325 
L 628 4666 
z
" transform="scale(0.015625)"/>
       </defs>
       <use xlink:href="#DejaVuSans-4a"/>
       <use xlink:href="#DejaVuSans-4a" x="29.492188"/>
      </g>
     </g>
    </g>
    <g id="ytick_9">
     <g id="text_14">
      <!-- TO -->
      <g style="fill: #333333" transform="translate(294.579219 370.790413) scale(0.13 -0.13)">
       <defs>
        <path id="DejaVuSans-54" d="M -19 4666 
L 3928 4666 
L 3928 4134 
L 2272 4134 
L 2272 0 
L 1638 0 
L 1638 4134 
L -19 4134 
L -19 4666 
z
" transform="scale(0.015625)"/>
        <path id="DejaVuSans-4f" d="M 2522 4238 
Q 1834 4238 1429 3725 
Q 1025 3213 1025 2328 
Q 1025 1447 1429 934 
Q 1834 422 2522 422 
Q 3209 422 3611 934 
Q 4013 1447 4013 2328 
Q 4013 3213 3611 3725 
Q 3209 4238 2522 4238 
z
M 2522 4750 
Q 3503 4750 4090 4092 
Q 4678 3434 4678 2328 
Q 4678 1225 4090 567 
Q 3503 -91 2522 -91 
Q 1538 -91 948 565 
Q 359 1222 359 2328 
Q 359 3434 948 4092 
Q 1538 4750 2522 4750 
z
" transform="scale(0.015625)"/>
       </defs>
       <use xlink:href="#DejaVuSans-54"/>
       <use xlink:href="#DejaVuSans-4f" x="61.083984"/>
      </g>
     </g>
    </g>
    <g id="ytick_10">
     <g id="text_15">
      <!-- MD -->
      <g style="fill: #333333" transform="translate(291.52625 340.902794) scale(0.13 -0.13)">
       <defs>
        <path id="DejaVuSans-4d" d="M 628 4666 
L 1569 4666 
L 2759 1491 
L 3956 4666 
L 4897 4666 
L 4897 0 
L 4281 0 
L 4281 4097 
L 3078 897 
L 2444 897 
L 1241 4097 
L 1241 0 
L 628 0 
L 628 4666 
z
" transform="scale(0.015625)"/>
        <path id="DejaVuSans-44" d="M 1259 4147 
L 1259 519 
L 2022 519 
Q 2988 519 3436 956 
Q 3884 1394 3884 2338 
Q 3884 3275 3436 3711 
Q 2988 4147 2022 4147 
L 1259 4147 
z
M 628 4666 
L 1925 4666 
Q 3281 4666 3915 4102 
Q 4550 3538 4550 2338 
Q 4550 1131 3912 565 
Q 3275 0 1925 0 
L 628 0 
L 628 4666 
z
" transform="scale(0.015625)"/>
       </defs>
       <use xlink:href="#DejaVuSans-4d"/>
       <use xlink:href="#DejaVuSans-44" x="86.279297"/>
      </g>
     </g>
    </g>
    <g id="ytick_11">
     <g id="text_16">
      <!-- v9 length difference for consecutive sentences -->
      <g style="fill: #333333" transform="translate(7.2 311.015175) scale(0.13 -0.13)">
       <defs>
        <path id="DejaVuSans-39" d="M 703 97 
L 703 672 
Q 941 559 1184 500 
Q 1428 441 1663 441 
Q 2288 441 2617 861 
Q 2947 1281 2994 2138 
Q 2813 1869 2534 1725 
Q 2256 1581 1919 1581 
Q 1219 1581 811 2004 
Q 403 2428 403 3163 
Q 403 3881 828 4315 
Q 1253 4750 1959 4750 
Q 2769 4750 3195 4129 
Q 3622 3509 3622 2328 
Q 3622 1225 3098 567 
Q 2575 -91 1691 -91 
Q 1453 -91 1209 -44 
Q 966 3 703 97 
z
M 1959 2075 
Q 2384 2075 2632 2365 
Q 2881 2656 2881 3163 
Q 2881 3666 2632 3958 
Q 2384 4250 1959 4250 
Q 1534 4250 1286 3958 
Q 1038 3666 1038 3163 
Q 1038 2656 1286 2365 
Q 1534 2075 1959 2075 
z
" transform="scale(0.015625)"/>
       </defs>
       <use xlink:href="#DejaVuSans-76"/>
       <use xlink:href="#DejaVuSans-39" x="59.179688"/>
       <use xlink:href="#DejaVuSans-20" x="122.802734"/>
       <use xlink:href="#DejaVuSans-6c" x="154.589844"/>
       <use xlink:href="#DejaVuSans-65" x="182.373047"/>
       <use xlink:href="#DejaVuSans-6e" x="243.896484"/>
       <use xlink:href="#DejaVuSans-67" x="307.275391"/>
       <use xlink:href="#DejaVuSans-74" x="370.751953"/>
       <use xlink:href="#DejaVuSans-68" x="409.960938"/>
       <use xlink:href="#DejaVuSans-20" x="473.339844"/>
       <use xlink:href="#DejaVuSans-64" x="505.126953"/>
       <use xlink:href="#DejaVuSans-69" x="568.603516"/>
       <use xlink:href="#DejaVuSans-66" x="596.386719"/>
       <use xlink:href="#DejaVuSans-66" x="631.591797"/>
       <use xlink:href="#DejaVuSans-65" x="666.796875"/>
       <use xlink:href="#DejaVuSans-72" x="728.320312"/>
       <use xlink:href="#DejaVuSans-65" x="767.183594"/>
       <use xlink:href="#DejaVuSans-6e" x="828.707031"/>
       <use xlink:href="#DejaVuSans-63" x="892.085938"/>
       <use xlink:href="#DejaVuSans-65" x="947.066406"/>
       <use xlink:href="#DejaVuSans-20" x="1008.589844"/>
       <use xlink:href="#DejaVuSans-66" x="1040.376953"/>
       <use xlink:href="#DejaVuSans-6f" x="1075.582031"/>
       <use xlink:href="#DejaVuSans-72" x="1136.763672"/>
       <use xlink:href="#DejaVuSans-20" x="1177.876953"/>
       <use xlink:href="#DejaVuSans-63" x="1209.664062"/>
       <use xlink:href="#DejaVuSans-6f" x="1264.644531"/>
       <use xlink:href="#DejaVuSans-6e" x="1325.826172"/>
       <use xlink:href="#DejaVuSans-73" x="1389.205078"/>
       <use xlink:href="#DejaVuSans-65" x="1441.304688"/>
       <use xlink:href="#DejaVuSans-63" x="1502.828125"/>
       <use xlink:href="#DejaVuSans-75" x="1557.808594"/>
       <use xlink:href="#DejaVuSans-74" x="1621.1875"/>
       <use xlink:href="#DejaVuSans-69" x="1660.396484"/>
       <use xlink:href="#DejaVuSans-76" x="1688.179688"/>
       <use xlink:href="#DejaVuSans-65" x="1747.359375"/>
       <use xlink:href="#DejaVuSans-20" x="1808.882812"/>
       <use xlink:href="#DejaVuSans-73" x="1840.669922"/>
       <use xlink:href="#DejaVuSans-65" x="1892.769531"/>
       <use xlink:href="#DejaVuSans-6e" x="1954.292969"/>
       <use xlink:href="#DejaVuSans-74" x="2017.671875"/>
       <use xlink:href="#DejaVuSans-65" x="2056.880859"/>
       <use xlink:href="#DejaVuSans-6e" x="2118.404297"/>
       <use xlink:href="#DejaVuSans-63" x="2181.783203"/>
       <use xlink:href="#DejaVuSans-65" x="2236.763672"/>
       <use xlink:href="#DejaVuSans-73" x="2298.287109"/>
      </g>
     </g>
    </g>
    <g id="ytick_12">
     <g id="text_17">
      <!-- NNS -->
      <g style="fill: #333333" transform="translate(285.048594 281.127556) scale(0.13 -0.13)">
       <use xlink:href="#DejaVuSans-4e"/>
       <use xlink:href="#DejaVuSans-4e" x="74.804688"/>
       <use xlink:href="#DejaVuSans-53" x="149.609375"/>
      </g>
     </g>
    </g>
    <g id="ytick_13">
     <g id="text_18">
      <!-- PRP$ -->
      <g style="fill: #333333" transform="translate(279.771406 251.239937) scale(0.13 -0.13)">
       <defs>
        <path id="DejaVuSans-24" d="M 2163 -941 
L 1850 -941 
L 1847 0 
Q 1519 6 1191 76 
Q 863 147 531 288 
L 531 850 
Q 850 650 1176 548 
Q 1503 447 1850 444 
L 1850 1869 
Q 1159 1981 845 2250 
Q 531 2519 531 2988 
Q 531 3497 872 3790 
Q 1213 4084 1850 4128 
L 1850 4863 
L 2163 4863 
L 2163 4138 
Q 2453 4125 2725 4076 
Q 2997 4028 3256 3944 
L 3256 3397 
Q 2997 3528 2723 3600 
Q 2450 3672 2163 3684 
L 2163 2350 
Q 2872 2241 3206 1959 
Q 3541 1678 3541 1191 
Q 3541 663 3186 358 
Q 2831 53 2163 6 
L 2163 -941 
z
M 1850 2406 
L 1850 3688 
Q 1488 3647 1297 3481 
Q 1106 3316 1106 3041 
Q 1106 2772 1282 2622 
Q 1459 2472 1850 2406 
z
M 2163 1806 
L 2163 453 
Q 2559 506 2761 678 
Q 2963 850 2963 1131 
Q 2963 1406 2770 1568 
Q 2578 1731 2163 1806 
z
" transform="scale(0.015625)"/>
       </defs>
       <use xlink:href="#DejaVuSans-50"/>
       <use xlink:href="#DejaVuSans-52" x="60.302734"/>
       <use xlink:href="#DejaVuSans-50" x="129.785156"/>
       <use xlink:href="#DejaVuSans-24" x="190.087891"/>
      </g>
     </g>
    </g>
    <g id="ytick_14">
     <g id="text_19">
      <!-- VBP -->
      <g style="fill: #333333" transform="translate(287.102188 221.352318) scale(0.13 -0.13)">
       <defs>
        <path id="DejaVuSans-56" d="M 1831 0 
L 50 4666 
L 709 4666 
L 2188 738 
L 3669 4666 
L 4325 4666 
L 2547 0 
L 1831 0 
z
" transform="scale(0.015625)"/>
        <path id="DejaVuSans-42" d="M 1259 2228 
L 1259 519 
L 2272 519 
Q 2781 519 3026 730 
Q 3272 941 3272 1375 
Q 3272 1813 3026 2020 
Q 2781 2228 2272 2228 
L 1259 2228 
z
M 1259 4147 
L 1259 2741 
L 2194 2741 
Q 2656 2741 2882 2914 
Q 3109 3088 3109 3444 
Q 3109 3797 2882 3972 
Q 2656 4147 2194 4147 
L 1259 4147 
z
M 628 4666 
L 2241 4666 
Q 2963 4666 3353 4366 
Q 3744 4066 3744 3513 
Q 3744 3084 3544 2831 
Q 3344 2578 2956 2516 
Q 3422 2416 3680 2098 
Q 3938 1781 3938 1306 
Q 3938 681 3513 340 
Q 3088 0 2303 0 
L 628 0 
L 628 4666 
z
" transform="scale(0.015625)"/>
       </defs>
       <use xlink:href="#DejaVuSans-56"/>
       <use xlink:href="#DejaVuSans-42" x="68.408203"/>
       <use xlink:href="#DejaVuSans-50" x="137.011719"/>
      </g>
     </g>
    </g>
    <g id="ytick_15">
     <g id="text_20">
      <!-- : -->
      <g style="fill: #333333" transform="translate(308.373438 191.464699) scale(0.13 -0.13)">
       <defs>
        <path id="DejaVuSans-3a" d="M 750 794 
L 1409 794 
L 1409 0 
L 750 0 
L 750 794 
z
M 750 3309 
L 1409 3309 
L 1409 2516 
L 750 2516 
L 750 3309 
z
" transform="scale(0.015625)"/>
       </defs>
       <use xlink:href="#DejaVuSans-3a"/>
      </g>
     </g>
    </g>
    <g id="ytick_16">
     <g id="text_21">
      <!-- uncommon word frequency -->
      <g style="fill: #333333" transform="translate(134.236406 161.57708) scale(0.13 -0.13)">
       <defs>
        <path id="DejaVuSans-77" d="M 269 3500 
L 844 3500 
L 1563 769 
L 2278 3500 
L 2956 3500 
L 3675 769 
L 4391 3500 
L 4966 3500 
L 4050 0 
L 3372 0 
L 2619 2869 
L 1863 0 
L 1184 0 
L 269 3500 
z
" transform="scale(0.015625)"/>
       </defs>
       <use xlink:href="#DejaVuSans-75"/>
       <use xlink:href="#DejaVuSans-6e" x="63.378906"/>
       <use xlink:href="#DejaVuSans-63" x="126.757812"/>
       <use xlink:href="#DejaVuSans-6f" x="181.738281"/>
       <use xlink:href="#DejaVuSans-6d" x="242.919922"/>
       <use xlink:href="#DejaVuSans-6d" x="340.332031"/>
       <use xlink:href="#DejaVuSans-6f" x="437.744141"/>
       <use xlink:href="#DejaVuSans-6e" x="498.925781"/>
       <use xlink:href="#DejaVuSans-20" x="562.304688"/>
       <use xlink:href="#DejaVuSans-77" x="594.091797"/>
       <use xlink:href="#DejaVuSans-6f" x="675.878906"/>
       <use xlink:href="#DejaVuSans-72" x="737.060547"/>
       <use xlink:href="#DejaVuSans-64" x="776.423828"/>
       <use xlink:href="#DejaVuSans-20" x="839.900391"/>
       <use xlink:href="#DejaVuSans-66" x="871.6875"/>
       <use xlink:href="#DejaVuSans-72" x="906.892578"/>
       <use xlink:href="#DejaVuSans-65" x="945.755859"/>
       <use xlink:href="#DejaVuSans-71" x="1007.279297"/>
       <use xlink:href="#DejaVuSans-75" x="1070.755859"/>
       <use xlink:href="#DejaVuSans-65" x="1134.134766"/>
       <use xlink:href="#DejaVuSans-6e" x="1195.658203"/>
       <use xlink:href="#DejaVuSans-63" x="1259.037109"/>
       <use xlink:href="#DejaVuSans-79" x="1314.017578"/>
      </g>
     </g>
    </g>
    <g id="ytick_17">
     <g id="text_22">
      <!-- , -->
      <g style="fill: #333333" transform="translate(308.62125 131.689461) scale(0.13 -0.13)">
       <defs>
        <path id="DejaVuSans-2c" d="M 750 794 
L 1409 794 
L 1409 256 
L 897 -744 
L 494 -744 
L 750 256 
L 750 794 
z
" transform="scale(0.015625)"/>
       </defs>
       <use xlink:href="#DejaVuSans-2c"/>
      </g>
     </g>
    </g>
    <g id="ytick_18">
     <g id="text_23">
      <!-- VBZ -->
      <g style="fill: #333333" transform="translate(286.035781 101.801842) scale(0.13 -0.13)">
       <defs>
        <path id="DejaVuSans-5a" d="M 359 4666 
L 4025 4666 
L 4025 4184 
L 1075 531 
L 4097 531 
L 4097 0 
L 288 0 
L 288 481 
L 3238 4134 
L 359 4134 
L 359 4666 
z
" transform="scale(0.015625)"/>
       </defs>
       <use xlink:href="#DejaVuSans-56"/>
       <use xlink:href="#DejaVuSans-42" x="68.408203"/>
       <use xlink:href="#DejaVuSans-5a" x="137.011719"/>
      </g>
     </g>
    </g>
    <g id="ytick_19">
     <g id="text_24">
      <!-- average word length -->
      <g style="fill: #333333" transform="translate(177.87375 71.914222) scale(0.13 -0.13)">
       <use xlink:href="#DejaVuSans-61"/>
       <use xlink:href="#DejaVuSans-76" x="61.279297"/>
       <use xlink:href="#DejaVuSans-65" x="120.458984"/>
       <use xlink:href="#DejaVuSans-72" x="181.982422"/>
       <use xlink:href="#DejaVuSans-61" x="223.095703"/>
       <use xlink:href="#DejaVuSans-67" x="284.375"/>
       <use xlink:href="#DejaVuSans-65" x="347.851562"/>
       <use xlink:href="#DejaVuSans-20" x="409.375"/>
       <use xlink:href="#DejaVuSans-77" x="441.162109"/>
       <use xlink:href="#DejaVuSans-6f" x="522.949219"/>
       <use xlink:href="#DejaVuSans-72" x="584.130859"/>
       <use xlink:href="#DejaVuSans-64" x="623.494141"/>
       <use xlink:href="#DejaVuSans-20" x="686.970703"/>
       <use xlink:href="#DejaVuSans-6c" x="718.757812"/>
       <use xlink:href="#DejaVuSans-65" x="746.541016"/>
       <use xlink:href="#DejaVuSans-6e" x="808.064453"/>
       <use xlink:href="#DejaVuSans-67" x="871.443359"/>
       <use xlink:href="#DejaVuSans-74" x="934.919922"/>
       <use xlink:href="#DejaVuSans-68" x="974.128906"/>
      </g>
     </g>
    </g>
    <g id="ytick_20">
     <g id="text_25">
      <!-- . -->
      <g style="fill: #333333" transform="translate(308.62125 42.026603) scale(0.13 -0.13)">
       <use xlink:href="#DejaVuSans-2e"/>
      </g>
     </g>
    </g>
   </g>
   <g id="patch_23">
    <path d="M 319.752813 634.84 
L 562.322812 634.84 
" style="fill: none; stroke: #000000; stroke-width: 0.8; stroke-linejoin: miter; stroke-linecap: square"/>
   </g>
  </g>
 </g>
 <defs>
  <clipPath id="pa24fa57110">
   <rect x="319.752813" y="7.2" width="242.57" height="627.64"/>
  </clipPath>
 </defs>
</svg>
